<svg id="Layer_1" data-name="Layer 1" xmlns="http://www.w3.org/2000/svg" viewBox="0 0 84.09 661.03"><defs><style>.cls-1{fill:#962ea0;}.cls-2{fill:#fff;}</style></defs><title>layer8</title><path class="cls-1" d="M632.13,661V551.11a9.15,9.15,0,1,0-18.3,0V661h18.3Z" transform="translate(-580.31 0)"/><rect class="cls-2" x="41.17" width="3" height="541.96"/><path class="cls-2" d="M607.34,507.81c-8.13-.67-27-2.92-27-9.36,0-7.88,27.5-10,42-10s42,2.08,42,10c0,6.08-16.41,8.43-26.19,9.29l-0.26-3c17.55-1.54,23.45-5,23.45-6.3,0-2.36-13.78-7-39-7s-39,4.6-39,7c0,1.37,6.11,4.88,24.27,6.37Z" transform="translate(-580.31 0)"/><path class="cls-2" d="M607.34,311.31c-8.13-.67-27-2.92-27-9.36,0-7.88,27.5-10,42-10s42,2.08,42,10c0,6.08-16.41,8.43-26.19,9.29l-0.26-3c17.55-1.54,23.45-5,23.45-6.3,0-2.36-13.78-7-39-7s-39,4.6-39,7c0,1.37,6.11,4.88,24.27,6.37Z" transform="translate(-580.31 0)"/><path class="cls-2" d="M607.34,105.32c-8.13-.67-27-2.92-27-9.36,0-7.88,27.5-10,42-10s42,2.08,42,10c0,6.08-16.41,8.43-26.19,9.29l-0.26-3c17.55-1.54,23.45-5,23.45-6.3,0-2.36-13.78-7-39-7s-39,4.6-39,7c0,1.37,6.11,4.88,24.27,6.37Z" transform="translate(-580.31 0)"/></svg>