<svg id="Layer_1" data-name="Layer 1" xmlns="http://www.w3.org/2000/svg" viewBox="0 0 847.78 616.19"><defs><style>.cls-1{fill:#2e3882;}</style></defs><title>layer00</title><circle class="cls-1" cx="723.95" cy="9.77" r="2.9"/><circle class="cls-1" cx="712.72" cy="73.64" r="2.9"/><circle class="cls-1" cx="641.24" cy="5.41" r="2.5"/><circle class="cls-1" cx="741.82" cy="329" r="2.9" transform="translate(-71.18 102.14) rotate(-10.48)"/><circle class="cls-1" cx="832.97" cy="209.57" r="2.9" transform="translate(-47.95 116.84) rotate(-10.49)"/><circle class="cls-1" cx="848.24" cy="270.22" r="2.5" transform="translate(-58.73 120.59) rotate(-10.48)"/><circle class="cls-1" cx="831.5" cy="140.75" r="2.9"/><circle class="cls-1" cx="747.12" cy="170.97" r="2.9"/><circle class="cls-1" cx="563.17" cy="120.1" r="2.5"/><circle class="cls-1" cx="379.42" cy="38.9" r="2.9"/><circle class="cls-1" cx="243.34" cy="42.39" r="2.9"/><circle class="cls-1" cx="332.68" cy="13.32" r="2.5"/><circle class="cls-1" cx="551.84" cy="376.67" r="2.9" transform="translate(-47.63 -0.59) rotate(-3.83)"/><circle class="cls-1" cx="465.39" cy="202.3" r="2.5" transform="translate(-59.3 83.13) rotate(-14.32)"/><circle class="cls-1" cx="510.23" cy="183.03" r="2.9" transform="translate(-34.8 -3.8) rotate(-3.83)"/><circle class="cls-1" cx="546.03" cy="265.2" r="2.9" transform="translate(-40.2 -1.22) rotate(-3.83)"/><circle class="cls-1" cx="450.65" cy="252.7" r="2.5" transform="translate(-39.59 -7.6) rotate(-3.83)"/><circle class="cls-1" cx="375.62" cy="224.49" r="2.9" transform="translate(-37.9 -12.62) rotate(-3.84)"/><circle class="cls-1" cx="64.06" cy="509.22" r="2.9" transform="translate(-57.56 -32.85) rotate(-3.83)"/><circle class="cls-1" cx="47.28" cy="637.59" r="2.9" transform="translate(-66.16 -33.68) rotate(-3.83)"/><circle class="cls-1" cx="149.63" cy="362.86" r="2.9" transform="translate(-153.89 49.34) rotate(-23.06)"/><circle class="cls-1" cx="54.33" cy="571.69" r="2.9" transform="translate(-243.32 28.71) rotate(-23.06)"/><circle class="cls-1" cx="695.98" cy="489.32" r="2.5" transform="translate(-159.82 273.69) rotate(-23.08)"/><circle class="cls-1" cx="368.04" cy="503.7" r="2.9" transform="matrix(1, -0.07, 0.07, 1, -56.6, -12.5)"/><circle class="cls-1" cx="317.42" cy="472.57" r="2.9" transform="translate(-54.55 -16.02) rotate(-3.83)"/><circle class="cls-1" cx="28.26" cy="486.41" r="2.9" transform="translate(-56.11 -35.29) rotate(-3.83)"/><circle class="cls-1" cx="734.38" cy="418" r="2.9" transform="translate(-50.04 11.82) rotate(-3.84)"/><circle class="cls-1" cx="669.58" cy="385.9" r="2.5" transform="translate(-47.98 7.3) rotate(-3.83)"/><circle class="cls-1" cx="817.61" cy="640.49" r="2.9" transform="translate(-64.64 17.73) rotate(-3.83)"/><circle class="cls-1" cx="864.94" cy="629.44" r="2.9" transform="translate(-63.89 21.01) rotate(-3.84)"/><circle class="cls-1" cx="767.94" cy="592.14" r="2.9" transform="translate(-61.62 14.46) rotate(-3.84)"/><circle class="cls-1" cx="559.26" cy="532.05" r="2.9" transform="translate(-58.06 0.35) rotate(-3.84)"/><circle class="cls-1" cx="567.81" cy="460.44" r="2.9" transform="translate(-53.25 0.76) rotate(-3.84)"/><circle class="cls-1" cx="334.66" cy="183.03" r="2.9" transform="translate(-35.22 -15.45) rotate(-3.84)"/><circle class="cls-1" cx="218.43" cy="287.29" r="2.9" transform="translate(-42.45 -23) rotate(-3.84)"/><circle class="cls-1" cx="134.4" cy="85.37" r="2.9" transform="translate(-29.13 -29.07) rotate(-3.84)"/><circle class="cls-1" cx="54.33" cy="162.52" r="2.9" transform="translate(-34.47 -34.26) rotate(-3.84)"/><circle class="cls-1" cx="528.96" cy="41.16" r="2.9" transform="translate(-25.29 -2.77) rotate(-3.84)"/><circle class="cls-1" cx="362.6" cy="138.84" r="2.9" transform="matrix(1, -0.07, 0.07, 1, -32.2, -13.68)"/><circle class="cls-1" cx="677.76" cy="185.93" r="2.9" transform="translate(-34.64 7.5) rotate(-3.84)"/><circle class="cls-1" cx="688.18" cy="262.3" r="2.9" transform="translate(-39.73 8.38) rotate(-3.84)"/><circle class="cls-1" cx="829" cy="65.76" r="2.9" transform="translate(-26.26 17.36) rotate(-3.84)"/><circle class="cls-1" cx="868.6" cy="478.12" r="2.9" transform="translate(-53.76 20.94) rotate(-3.84)"/><circle class="cls-1" cx="507.33" cy="520.3" r="2.9" transform="translate(-57.4 -3.14) rotate(-3.84)"/><circle class="cls-1" cx="844.45" cy="651.94" r="2.5" transform="matrix(1, -0.07, 0.07, 1, -65.37, 19.59)"/><circle class="cls-1" cx="102.34" cy="334.03" r="2.9" transform="translate(-103.09 -2.61) rotate(-14.31)"/><circle class="cls-1" cx="26.62" cy="272.09" r="2.9" transform="translate(-90.14 -23.24) rotate(-14.31)"/><circle class="cls-1" cx="86.13" cy="252.8" r="2.5" transform="translate(-83.57 -9.1) rotate(-14.32)"/><circle class="cls-1" cx="179.01" cy="302.67" r="2.9" transform="translate(-43.52 -25.64) rotate(-3.83)"/><circle class="cls-1" cx="144.81" cy="415.48" r="2.9" transform="matrix(1, -0.07, 0.07, 1, -51.2, -27.64)"/></svg>