<svg id="Layer_1" data-name="Layer 1" xmlns="http://www.w3.org/2000/svg" viewBox="0 0 900 344.84"><defs><style>.cls-1{fill:#03a897;}.cls-2{fill:#04cec0;}.cls-3{fill:#44dbe2;}.cls-4{fill:#2cd4e5;}.cls-5{fill:#61f7e8;}</style></defs><title>layer10</title><polygon class="cls-1" points="712.35 127.48 729.09 177.7 0 177.7 0 344.84 900 344.84 900 177.7 900 155.52 712.35 127.48"/><polygon class="cls-1" points="366.39 106.58 341.38 106.58 327.37 67.36 318.41 66.92 315.94 73.38 285.7 36.33 314.03 26.61 318.43 20.52 270.68 13.88 240.76 12.65 254.31 4.52 255.43 0 195.61 10.98 151.94 21.95 107.92 15.47 97.74 65.01 134.44 116.09 168.41 116.09 365.58 116.09 370.96 113.73 366.39 106.58"/><path class="cls-1" d="M715.09,834.45A313.69,313.69,0,0,0,764.86,664.4c0-.89,0-1.77,0-2.65H134.56c0,0.88,0,1.77,0,2.65A313.69,313.69,0,0,0,184.3,834.45H715.09Z" transform="translate(0 -555.16)"/><polygon class="cls-2" points="709.88 106.58 341.38 106.58 260.4 169.28 497.16 231.97 733.83 150.56 709.88 106.58"/><polygon class="cls-3" points="764.86 106.58 764.86 75.76 748.59 82.61 727.19 62.92 712.63 62.92 685.02 18.5 666.39 50.07 650.12 50.07 636.92 65.68 569.06 89.92 565.35 106.58 764.86 106.58"/><polygon class="cls-4" points="327.37 67.36 341.38 106.58 351.26 106.58 335.38 70.4 327.37 67.36"/><polygon class="cls-5" points="617.64 190.51 473.73 190.51 451.95 209.26 563.19 209.26 617.64 226.02 617.64 190.51"/><polygon class="cls-5" points="719.55 155.52 719.37 155.53 719.42 155.52 417.45 155.52 395.68 174.27 664.91 174.27 665.21 174.17 665.11 174.27 729.09 199.88 719.55 155.52"/><path class="cls-5" d="M348,697H763.16s0.74-7.73.93-10.31c0.15-2.11.48-8.44,0.48-8.44H369.77Z" transform="translate(0 -555.16)"/><polygon class="cls-5" points="723.78 175.65 900 196.82 900 220.82 733.83 220.82 723.78 175.65"/><polygon class="cls-4" points="386.11 203.18 353.6 156.17 335.89 156.17 330.96 166.01 300.96 112.64 281.44 124.03 246.01 124.68 250.6 79.42 207.96 63.67 197.29 79.05 166.47 50.76 211.4 54.1 260.4 42.38 313.37 80.32 315.94 73.38 285.7 36.33 314.03 26.61 318.43 20.52 208.47 43.22 118.34 40.35 118.34 47.18 178.67 106.11 162.57 203.18 386.11 203.18"/></svg>