<svg id="Layer_1" data-name="Layer 1" xmlns="http://www.w3.org/2000/svg" viewBox="0 0 114.89 114.89"><defs><style>.cls-1{fill:#fec33b;}.cls-2{fill:#f7941e;}.cls-3{fill:#f15a29;}.cls-4{fill:#00acda;}.cls-5{fill:#394d88;}.cls-6{fill:#192e63;}.cls-7{fill:#f5f5f5;}</style></defs><title>layer9</title><ellipse class="cls-1" cx="147.6" cy="196.05" rx="35.47" ry="15.68" transform="translate(-215.57 53.2) rotate(-45)"/><ellipse class="cls-2" cx="151.94" cy="191.71" rx="27.18" ry="12.02" transform="translate(-211.23 55) rotate(-45)"/><ellipse class="cls-3" cx="158.08" cy="185.57" rx="17.22" ry="7.61" transform="translate(-205.09 57.54) rotate(-45)"/><path class="cls-4" d="M169.8,173.84a198.63,198.63,0,0,1,27.92,34.41c15.68-18.49,12-41.62-4.36-58s-39.48-20-58-4.37A198.61,198.61,0,0,1,169.8,173.84Z" transform="translate(-120.17 -108.59)"/><path class="cls-5" d="M205.79,111.36A60,60,0,0,0,179,126.58c-9.13,9.13-24,26.52-29.34,36.33L180.75,194c9.8-5.3,27.2-20.21,36.33-29.34a60,60,0,0,0,15.21-26.82A52.87,52.87,0,0,1,205.79,111.36Z" transform="translate(-120.17 -108.59)"/><path class="cls-4" d="M234.63,109a78.09,78.09,0,0,0-28.84,2.34,52.87,52.87,0,0,0,26.5,26.5A78.1,78.1,0,0,0,234.63,109Z" transform="translate(-120.17 -108.59)"/><circle class="cls-6" cx="191.2" cy="152.45" r="15.68" transform="translate(-171.97 71.26) rotate(-45)"/><circle class="cls-6" cx="172.4" cy="171.25" r="3.9" transform="translate(-190.77 63.47) rotate(-45)"/><circle class="cls-6" cx="208.72" cy="134.94" r="3.9" transform="translate(-154.46 78.51) rotate(-45)"/><circle class="cls-7" cx="191.2" cy="152.45" r="10.07" transform="translate(-171.97 71.27) rotate(-45)"/><polygon class="cls-6" points="48.1 87.17 27.72 66.79 33.53 58.38 56.51 81.36 48.1 87.17"/></svg>