<svg id="Layer_1" data-name="Layer 1" xmlns="http://www.w3.org/2000/svg" viewBox="0 0 900 900"><defs><style>.cls-1{fill:#00acda;}.cls-2{fill:#0a86a3;}.cls-3{fill:#fec33b;}.cls-4{fill:#fff;}.cls-5{fill:#000120;}.cls-6{fill:#ebeda4;opacity:0.5;}</style></defs><title>layer8</title><polygon class="cls-1" points="472.69 284.98 272.64 322.41 242.7 373.03 518.92 321.34 472.69 284.98"/><polygon class="cls-2" points="485.57 353.8 285.52 391.24 242.7 373.03 518.92 321.34 485.57 353.8"/><polygon class="cls-2" points="419.28 260.01 313.42 279.82 296.03 318.04 449.31 289.35 419.28 260.01"/><polygon class="cls-3" points="390.4 244.44 334.7 254.86 326.02 277.46 406.67 262.37 390.4 244.44"/><polygon class="cls-3" points="417.19 387.58 361.49 398 345.22 380.07 425.87 364.98 417.19 387.58"/><path class="cls-4" d="M531.93,319.85a9.5,9.5,0,0,1-7.59,11.09l-283.22,53A9.5,9.5,0,0,1,230,376.35h0a9.5,9.5,0,0,1,7.59-11.09l283.22-53a9.5,9.5,0,0,1,11.08,7.59h0Z"/><circle class="cls-5" cx="377.58" cy="322.26" r="9.5" transform="translate(-52.83 74.95) rotate(-10.6)"/><circle class="cls-5" cx="335.98" cy="330.04" r="9.5" transform="translate(-54.98 67.43) rotate(-10.6)"/><circle class="cls-5" cx="294.5" cy="337.8" r="9.5" transform="translate(-57.11 59.94) rotate(-10.6)"/><circle class="cls-5" cx="461.97" cy="306.46" r="9.5" transform="translate(-48.49 90.21) rotate(-10.6)"/><circle class="cls-5" cx="420.49" cy="314.22" r="9.5" transform="translate(-50.63 82.71) rotate(-10.6)"/><path class="cls-6" d="M361.49,398l55.7-10.42L547.18,670s-2.82,48.17-117.82,59.44c-93.22,9.14-117.88-28.32-117.88-28.32Z"/></svg>