<svg id="Layer_1" data-name="Layer 1" xmlns="http://www.w3.org/2000/svg" viewBox="0 0 575.14 299.65"><defs><style>.cls-1{fill:#2e3882;}.cls-2{fill:#394d88;}.cls-3{fill:#5f77b2;}</style></defs><title>layer7</title><polygon class="cls-1" points="0 263.14 147.72 216.24 158.82 299.65 0 299.65 0 263.14"/><polygon class="cls-2" points="142.62 83.91 160.6 90.76 198.27 0 248.15 54 257.46 45.37 311.48 97.97 329.75 81.08 388.47 173.39 401.32 163.97 413.2 184.1 430.43 178.05 570.17 221.38 575.14 238.04 142.62 238.04 142.62 83.91"/><polygon class="cls-3" points="198.27 0 225.9 76.01 248.15 54 198.27 0"/><polygon class="cls-3" points="257.46 45.37 296.14 112.13 311.48 97.97 257.46 45.37"/><polygon class="cls-3" points="329.75 81.08 363.53 191.16 388.47 173.39 329.75 81.08"/></svg>