<svg id="Layer_1" data-name="Layer 1" xmlns="http://www.w3.org/2000/svg" viewBox="0 0 900 900"><defs><style>.cls-1{fill:#03a897;}.cls-2{fill:#04cec0;}.cls-3{fill:#61f7e8;}.cls-4{fill:#44dbe2;}.cls-5{fill:#2cd4e5;}</style></defs><title>layer4</title><polygon class="cls-1" points="712.35 682.64 729.09 732.86 0 732.86 0 900 900 900 900 732.86 900 710.68 712.35 682.64"/><polygon class="cls-1" points="366.39 661.75 341.38 661.75 327.37 622.52 318.41 622.08 315.94 628.54 285.7 591.49 314.03 581.77 318.43 575.67 270.68 569.04 240.76 567.81 254.31 559.68 255.43 555.16 195.61 566.14 151.94 577.11 107.92 570.63 97.74 620.17 134.44 671.25 168.41 671.25 365.58 671.25 370.96 668.89 366.39 661.75"/><path class="cls-1" d="M715.09,834.45A313.69,313.69,0,0,0,764.86,664.4c0-.89,0-1.77,0-2.65H134.56c0,0.88,0,1.77,0,2.65A313.69,313.69,0,0,0,184.3,834.45H715.09Z"/><polygon class="cls-2" points="709.88 661.75 341.38 661.75 260.4 724.44 497.16 787.13 733.83 705.72 709.88 661.75"/><path class="cls-3" d="M348,697H763.16s0.74-7.73.93-10.31c0.15-2.11.48-8.44,0.48-8.44H369.77Z"/><polygon class="cls-4" points="764.86 661.75 764.86 630.92 748.59 637.77 727.19 618.08 712.63 618.08 685.02 573.66 666.39 605.23 650.12 605.23 636.92 620.84 569.06 645.08 565.35 661.75 764.86 661.75"/><polygon class="cls-5" points="327.37 622.52 341.38 661.75 351.26 661.75 335.38 625.56 327.37 622.52"/><polygon class="cls-3" points="617.64 745.67 473.73 745.67 451.95 764.42 563.19 764.42 617.64 781.18 617.64 745.67"/><polygon class="cls-3" points="719.55 710.68 719.37 710.7 719.42 710.68 417.45 710.68 395.68 729.43 664.91 729.43 665.21 729.33 665.11 729.43 729.09 755.04 719.55 710.68"/><polygon class="cls-5" points="386.11 758.34 353.6 711.33 335.89 711.33 330.96 721.17 300.96 667.8 281.44 679.19 246.01 679.84 250.6 634.58 207.96 618.83 197.29 634.21 166.47 605.92 211.4 609.26 260.4 597.54 313.37 635.48 315.94 628.54 285.7 591.49 314.03 581.77 318.43 575.67 208.47 598.38 118.34 595.52 118.34 602.34 178.67 661.27 162.57 758.34 386.11 758.34"/><polygon class="cls-3" points="723.78 730.81 900 751.99 900 775.98 733.83 775.98 723.78 730.81"/></svg>