<svg xmlns="http://www.w3.org/2000/svg" viewBox="0 0 900 900"><defs><style>.cls-1{isolation:isolate;}.cls-2{fill:#000120;}.cls-3{fill:#2e3882;}.cls-4{fill:#03a897;}.cls-5{fill:#d2deb6;}.cls-6{fill:#6b6868;}.cls-22,.cls-6{opacity:0.4;}.cls-19,.cls-22,.cls-6{mix-blend-mode:multiply;}.cls-7{fill:#f1f2f2;}.cls-8{fill:#fed426;}.cls-9{fill:#00acda;}.cls-10{fill:#0a86a3;}.cls-11{fill:#fec33b;}.cls-12{fill:#fff;}.cls-13{fill:#968fa0;}.cls-14{fill:#52d1e1;}.cls-15{fill:#ffff47;}.cls-16{fill:#9ee34a;}.cls-17{fill:#962ea0;}.cls-18{fill:#ff8788;}.cls-19,.cls-22{fill:#3b9dad;}.cls-19{opacity:0.2;}.cls-20{fill:#f2beaa;}.cls-21{fill:#b0f0f2;}.cls-23{fill:#394d88;}.cls-24{fill:#04cec0;}.cls-25{fill:#61f7e8;}.cls-26{fill:#f7941e;}.cls-27{fill:#f15a29;}.cls-28{fill:#192e63;}.cls-29{fill:#f5f5f5;}.cls-30{fill:#5f77b2;}.cls-31{fill:#44dbe2;}.cls-32{fill:#bbedf2;}.cls-33{fill:#2cd4e5;}.cls-34{fill:#ebeda4;opacity:0.5;}.cls-35{fill:#0b7c6e;}</style></defs><title>spacestation</title><g class="cls-1"><g id="Layer_1" data-name="Layer 1"><rect class="cls-2" width="900" height="900"/><polygon class="cls-3" points="0 696.35 147.72 649.44 158.82 732.86 0 732.86 0 696.35"/><polygon class="cls-4" points="712.35 682.64 729.09 732.86 0 732.86 0 900 900 900 900 732.86 900 710.68 712.35 682.64"/><circle class="cls-5" cx="811.71" cy="373.76" r="31.37"/><path class="cls-6" d="M793.95,363.15a27.49,27.49,0,0,0,43.65,22.28,27.52,27.52,0,1,1-40.38-35.28A27.4,27.4,0,0,0,793.95,363.15Z" transform="translate(0 0)"/><ellipse class="cls-7" cx="822.24" cy="362.86" rx="11.58" ry="13.67" transform="translate(-22.84 668.76) rotate(-43.71)"/><path class="cls-4" d="M780.76,378.91a31.1,31.1,0,0,0,2.88,8.87c-4.13,3.75-6.26,6.55-5.53,7.71s4.24,0.48,9.52-1.62c0.85-.34,1.74-0.71,2.67-1.12a215.11,215.11,0,0,0,25.83-14c7.45-4.64,14.15-9.27,19.46-13.36q2.74-2.11,4.95-4c5.34-4.56,8.22-8,7.4-9.35s-5.13-.29-11.5,2.44a31.53,31.53,0,0,0-6.72-6.39c18.1-8.43,32.22-11.44,35.21-6.63s-6.15,16.4-22,29.08q-1.92,1.53-4,3.08c-5.49,4.16-11.62,8.39-18.24,12.51A232.39,232.39,0,0,1,796,399.57l-1.28.58c-17.35,7.88-30.75,10.58-33.65,5.91S766.35,390.82,780.76,378.91Z" transform="translate(0 0)"/><path class="cls-8" d="M588.83,658a126.29,126.29,0,0,0-252.58,0H588.83Z" transform="translate(0 0)"/><polygon class="cls-9" points="472.69 284.98 272.64 322.41 242.7 373.03 518.92 321.34 472.69 284.98"/><polygon class="cls-10" points="485.57 353.8 285.52 391.24 242.7 373.03 518.92 321.34 485.57 353.8"/><polygon class="cls-10" points="419.28 260.01 313.42 279.82 296.03 318.04 449.31 289.35 419.28 260.01"/><polygon class="cls-11" points="390.4 244.44 334.7 254.86 326.02 277.46 406.67 262.37 390.4 244.44"/><polygon class="cls-11" points="417.19 387.58 361.49 398 345.22 380.07 425.87 364.98 417.19 387.58"/><path class="cls-12" d="M531.93,319.85a9.5,9.5,0,0,1-7.59,11.09l-283.22,53A9.5,9.5,0,0,1,230,376.35h0a9.5,9.5,0,0,1,7.59-11.09l283.22-53a9.5,9.5,0,0,1,11.08,7.59h0Z" transform="translate(0 0)"/><circle class="cls-2" cx="377.58" cy="322.26" r="9.5" transform="translate(-52.83 74.95) rotate(-10.6)"/><circle class="cls-2" cx="335.98" cy="330.04" r="9.5" transform="translate(-54.98 67.43) rotate(-10.6)"/><circle class="cls-2" cx="294.5" cy="337.8" r="9.5" transform="translate(-57.11 59.94) rotate(-10.6)"/><circle class="cls-2" cx="461.97" cy="306.46" r="9.5" transform="translate(-48.49 90.21) rotate(-10.6)"/><circle class="cls-2" cx="420.49" cy="314.22" r="9.5" transform="translate(-50.63 82.71) rotate(-10.6)"/><path class="cls-13" d="M772.46,489.23a33.86,33.86,0,0,1-36.62,48.64A32,32,0,1,0,772.46,489.23Z" transform="translate(0 0)"/><circle class="cls-12" cx="116.68" cy="94.07" r="3.28"/><circle class="cls-12" cx="108.06" cy="472.57" r="3.28"/><circle class="cls-12" cx="235.26" cy="70.23" r="2.83"/><path class="cls-14" d="M573.26,140.56a15.57,15.57,0,0,1-15.08-15.45H558A15.57,15.57,0,0,1,543,140.56a15.58,15.58,0,0,1,15.09,15.55h0.12A15.58,15.58,0,0,1,573.26,140.56Z" transform="translate(0 0)"/><path class="cls-15" d="M550.86,420.11A8.13,8.13,0,0,1,543,412h-0.07a8.12,8.12,0,0,1-7.87,8.06,8.13,8.13,0,0,1,7.87,8.11H543A8.13,8.13,0,0,1,550.86,420.11Z" transform="translate(0 0)"/><path class="cls-16" d="M702.18,430.75a10.71,10.71,0,0,1-10.37-10.62h-0.09a10.71,10.71,0,0,1-10.37,10.62,10.71,10.71,0,0,1,10.38,10.7h0.08A10.72,10.72,0,0,1,702.18,430.75Z" transform="translate(0 0)"/><path class="cls-14" d="M244.11,187.1a15.58,15.58,0,0,1,15.09,15.45h0.13a15.57,15.57,0,0,1,15.08-15.45,15.58,15.58,0,0,1-15.09-15.55H259.2A15.58,15.58,0,0,1,244.11,187.1Z" transform="translate(0 0)"/><path class="cls-15" d="M197.35,343.67a8.12,8.12,0,0,1,7.87,8.06h0.07a8.12,8.12,0,0,1,7.87-8.06,8.13,8.13,0,0,1-7.87-8.11h-0.06A8.13,8.13,0,0,1,197.35,343.67Z" transform="translate(0 0)"/><path class="cls-16" d="M148.4,271.1a10.71,10.71,0,0,1,10.37,10.63h0.09a10.71,10.71,0,0,1,10.37-10.62,10.71,10.71,0,0,1-10.38-10.69h-0.08A10.72,10.72,0,0,1,148.4,271.1Z" transform="translate(0 0)"/><path class="cls-17" d="M632.13,661V551.11a9.15,9.15,0,1,0-18.3,0V661h18.3Z" transform="translate(0 0)"/><rect class="cls-12" x="621.48" width="3" height="541.96"/><path class="cls-12" d="M607.34,507.81c-8.13-.67-27-2.92-27-9.36,0-7.88,27.5-10,42-10s42,2.08,42,10c0,6.08-16.41,8.43-26.19,9.29l-0.26-3c17.55-1.54,23.45-5,23.45-6.3,0-2.36-13.78-7-39-7s-39,4.6-39,7c0,1.37,6.11,4.88,24.27,6.37Z" transform="translate(0 0)"/><path class="cls-12" d="M607.34,311.31c-8.13-.67-27-2.92-27-9.36,0-7.88,27.5-10,42-10s42,2.08,42,10c0,6.08-16.41,8.43-26.19,9.29l-0.26-3c17.55-1.54,23.45-5,23.45-6.3,0-2.36-13.78-7-39-7s-39,4.6-39,7c0,1.37,6.11,4.88,24.27,6.37Z" transform="translate(0 0)"/><path class="cls-12" d="M607.34,105.32c-8.13-.67-27-2.92-27-9.36,0-7.88,27.5-10,42-10s42,2.08,42,10c0,6.08-16.41,8.43-26.19,9.29l-0.26-3c17.55-1.54,23.45-5,23.45-6.3,0-2.36-13.78-7-39-7s-39,4.6-39,7c0,1.37,6.11,4.88,24.27,6.37Z" transform="translate(0 0)"/><circle class="cls-18" cx="761.93" cy="249.29" r="20.11"/><path class="cls-19" d="M772.52,243.53a16,16,0,0,1-25.46,13,16,16,0,1,0,23.55-20.57A16,16,0,0,1,772.52,243.53Z" transform="translate(0 0)"/><ellipse class="cls-20" cx="756.02" cy="243.36" rx="7.97" ry="6.75" transform="translate(57.73 621.76) rotate(-46.3)"/><circle class="cls-21" cx="474.65" cy="108.59" r="35.01"/><path class="cls-22" d="M493.09,98.57a27.91,27.91,0,0,1-44.31,22.61,27.93,27.93,0,1,0,41-35.82A27.82,27.82,0,0,1,493.09,98.57Z" transform="translate(0 0)"/><ellipse class="cls-7" cx="464.37" cy="98.27" rx="13.87" ry="11.75" transform="translate(72.44 366.02) rotate(-46.29)"/><polygon class="cls-23" points="142.62 517.12 160.6 523.97 198.27 433.21 248.15 487.21 257.46 478.58 311.48 531.18 329.75 514.29 388.47 606.6 401.32 597.18 413.2 617.3 430.43 611.25 570.17 654.58 575.14 671.25 142.62 671.25 142.62 517.12"/><polygon class="cls-4" points="366.39 661.75 341.38 661.75 327.37 622.52 318.41 622.08 315.94 628.54 285.7 591.49 314.03 581.77 318.43 575.67 270.68 569.04 240.76 567.81 254.31 559.68 255.43 555.16 195.61 566.14 151.94 577.11 107.92 570.63 97.74 620.17 134.44 671.25 168.41 671.25 365.58 671.25 370.96 668.89 366.39 661.75"/><path class="cls-4" d="M715.09,834.45A313.69,313.69,0,0,0,764.86,664.4c0-.89,0-1.77,0-2.65H134.56c0,0.88,0,1.77,0,2.65A313.69,313.69,0,0,0,184.3,834.45H715.09Z" transform="translate(0 0)"/><polygon class="cls-24" points="709.88 661.75 341.38 661.75 260.4 724.44 497.16 787.13 733.83 705.72 709.88 661.75"/><path class="cls-25" d="M348,697H763.16s0.74-7.73.93-10.31c0.15-2.11.48-8.44,0.48-8.44H369.77Z" transform="translate(0 0)"/><ellipse class="cls-11" cx="147.6" cy="196.05" rx="35.47" ry="15.68" transform="translate(-95.4 161.79) rotate(-45)"/><ellipse class="cls-26" cx="151.94" cy="191.71" rx="27.18" ry="12.02" transform="translate(-91.06 163.59) rotate(-45)"/><ellipse class="cls-27" cx="158.08" cy="185.57" rx="17.22" ry="7.61" transform="translate(-84.91 166.13) rotate(-45)"/><path class="cls-9" d="M169.8,173.84a198.63,198.63,0,0,1,27.92,34.41c15.68-18.49,12-41.62-4.36-58s-39.48-20-58-4.37A198.61,198.61,0,0,1,169.8,173.84Z" transform="translate(0 0)"/><path class="cls-23" d="M205.79,111.36A60,60,0,0,0,179,126.58c-9.13,9.13-24,26.52-29.34,36.33L180.75,194c9.8-5.3,27.2-20.21,36.33-29.34a60,60,0,0,0,15.21-26.82A52.87,52.87,0,0,1,205.79,111.36Z" transform="translate(0 0)"/><path class="cls-9" d="M234.63,109a78.09,78.09,0,0,0-28.84,2.34,52.87,52.87,0,0,0,26.5,26.5A78.1,78.1,0,0,0,234.63,109Z" transform="translate(0 0)"/><circle class="cls-28" cx="191.2" cy="152.45" r="15.68" transform="translate(-51.8 179.85) rotate(-45)"/><circle class="cls-28" cx="172.4" cy="171.25" r="3.9" transform="translate(-70.6 172.06) rotate(-45)"/><circle class="cls-28" cx="208.72" cy="134.94" r="3.9" transform="translate(-34.28 187.1) rotate(-45)"/><circle class="cls-29" cx="191.2" cy="152.45" r="10.07" transform="translate(-51.8 179.86) rotate(-45)"/><polygon class="cls-28" points="168.27 195.76 147.89 175.38 153.7 166.97 176.68 189.95 168.27 195.76"/><circle class="cls-12" cx="366.75" cy="67.4" r="4.15"/><circle class="cls-12" cx="495.66" cy="464.59" r="4.15"/><circle class="cls-12" cx="313.28" cy="98.27" r="3.57"/><circle class="cls-12" cx="54.33" cy="398" r="4.15" transform="translate(-71.48 16.52) rotate(-10.48)"/><circle class="cls-12" cx="75.26" cy="701.11" r="4.15" transform="translate(-126.29 25.39) rotate(-10.48)"/><circle class="cls-12" cx="664.4" cy="221.59" r="3.57" transform="translate(-29.23 124.62) rotate(-10.49)"/><circle class="cls-12" cx="544.11" cy="239.56" r="4.15"/><circle class="cls-12" cx="264.56" cy="433.21" r="4.15"/><circle class="cls-12" cx="411.11" cy="191.39" r="3.57"/><circle class="cls-12" cx="376.26" cy="482.26" r="4.15"/><circle class="cls-12" cx="854.89" cy="569.33" r="4.15"/><circle class="cls-12" cx="69.01" cy="324.79" r="3.57"/><circle class="cls-12" cx="799.02" cy="152.45" r="4.15"/><circle class="cls-12" cx="817.61" cy="498.15" r="4.15"/><circle class="cls-12" cx="711.74" cy="65.76" r="3.57"/><circle class="cls-3" cx="747.67" cy="48.03" r="2.9"/><circle class="cls-3" cx="736.44" cy="111.89" r="2.9"/><circle class="cls-3" cx="664.96" cy="43.66" r="2.5"/><circle class="cls-3" cx="741.82" cy="329" r="2.9" transform="translate(-47.46 140.4) rotate(-10.48)"/><circle class="cls-3" cx="832.97" cy="209.57" r="2.9" transform="translate(-24.23 155.1) rotate(-10.49)"/><circle class="cls-3" cx="848.24" cy="270.22" r="2.5" transform="translate(-35.01 158.85) rotate(-10.48)"/><circle class="cls-3" cx="855.22" cy="179" r="2.9"/><circle class="cls-3" cx="770.84" cy="209.23" r="2.9"/><circle class="cls-3" cx="586.89" cy="158.35" r="2.5"/><circle class="cls-3" cx="403.14" cy="77.16" r="2.9"/><circle class="cls-3" cx="267.06" cy="80.64" r="2.9"/><circle class="cls-3" cx="356.4" cy="51.58" r="2.5"/><circle class="cls-3" cx="551.84" cy="376.67" r="2.9" transform="translate(-23.91 37.67) rotate(-3.83)"/><circle class="cls-3" cx="465.39" cy="202.3" r="2.5" transform="translate(-35.58 121.39) rotate(-14.32)"/><circle class="cls-3" cx="510.23" cy="183.03" r="2.9" transform="translate(-11.08 34.46) rotate(-3.83)"/><circle class="cls-3" cx="546.03" cy="265.2" r="2.9" transform="translate(-16.48 37.03) rotate(-3.83)"/><circle class="cls-3" cx="450.65" cy="252.7" r="2.5" transform="translate(-15.87 30.66) rotate(-3.83)"/><circle class="cls-3" cx="375.62" cy="224.49" r="2.9" transform="translate(-14.18 25.63) rotate(-3.84)"/><circle class="cls-3" cx="64.06" cy="509.22" r="2.9" transform="translate(-33.84 5.41) rotate(-3.83)"/><circle class="cls-3" cx="47.28" cy="637.59" r="2.9" transform="translate(-42.45 4.58) rotate(-3.83)"/><circle class="cls-3" cx="149.63" cy="362.86" r="2.9" transform="translate(-130.17 87.6) rotate(-23.06)"/><circle class="cls-3" cx="54.33" cy="571.69" r="2.9" transform="translate(-219.6 66.97) rotate(-23.06)"/><circle class="cls-3" cx="695.98" cy="489.32" r="2.5" transform="translate(-136.1 311.95) rotate(-23.08)"/><circle class="cls-3" cx="368.04" cy="503.7" r="2.9" transform="matrix(1, -0.07, 0.07, 1, -32.88, 25.76)"/><circle class="cls-3" cx="317.42" cy="472.57" r="2.9" transform="translate(-30.83 22.24) rotate(-3.83)"/><circle class="cls-3" cx="28.26" cy="486.41" r="2.9" transform="translate(-32.4 2.97) rotate(-3.83)"/><circle class="cls-3" cx="734.38" cy="418" r="2.9" transform="translate(-26.33 50.08) rotate(-3.84)"/><circle class="cls-3" cx="669.58" cy="385.9" r="2.5" transform="translate(-24.26 45.55) rotate(-3.83)"/><circle class="cls-3" cx="817.61" cy="640.49" r="2.9" transform="translate(-40.92 55.99) rotate(-3.83)"/><circle class="cls-3" cx="864.94" cy="629.44" r="2.9" transform="translate(-40.17 59.27) rotate(-3.84)"/><circle class="cls-3" cx="767.94" cy="592.14" r="2.9" transform="translate(-37.9 52.71) rotate(-3.84)"/><circle class="cls-3" cx="559.26" cy="532.05" r="2.9" transform="translate(-34.34 38.6) rotate(-3.84)"/><circle class="cls-3" cx="567.81" cy="460.44" r="2.9" transform="translate(-29.53 39.02) rotate(-3.84)"/><circle class="cls-3" cx="334.66" cy="183.03" r="2.9" transform="translate(-11.5 22.8) rotate(-3.84)"/><circle class="cls-3" cx="218.43" cy="287.29" r="2.9" transform="translate(-18.73 15.26) rotate(-3.84)"/><circle class="cls-3" cx="134.4" cy="85.37" r="2.9" transform="translate(-5.41 9.18) rotate(-3.84)"/><circle class="cls-3" cx="54.33" cy="162.52" r="2.9" transform="translate(-10.75 4) rotate(-3.84)"/><circle class="cls-3" cx="528.96" cy="41.16" r="2.9" transform="translate(-1.57 35.49) rotate(-3.84)"/><circle class="cls-3" cx="362.6" cy="138.84" r="2.9" transform="matrix(1, -0.07, 0.07, 1, -8.48, 24.57)"/><circle class="cls-3" cx="677.76" cy="185.93" r="2.9" transform="translate(-10.92 45.76) rotate(-3.84)"/><circle class="cls-3" cx="688.18" cy="262.3" r="2.9" transform="translate(-16.01 46.64) rotate(-3.84)"/><circle class="cls-3" cx="829" cy="65.76" r="2.9" transform="translate(-2.54 55.62) rotate(-3.84)"/><circle class="cls-3" cx="868.6" cy="478.12" r="2.9" transform="translate(-30.05 59.19) rotate(-3.84)"/><circle class="cls-3" cx="507.33" cy="520.3" r="2.9" transform="translate(-33.68 35.11) rotate(-3.84)"/><circle class="cls-3" cx="844.45" cy="651.94" r="2.5" transform="matrix(1, -0.07, 0.07, 1, -41.65, 57.84)"/><circle class="cls-3" cx="102.34" cy="334.03" r="2.9" transform="translate(-79.37 35.65) rotate(-14.31)"/><circle class="cls-3" cx="26.62" cy="272.09" r="2.9" transform="translate(-66.42 15.02) rotate(-14.31)"/><circle class="cls-3" cx="86.13" cy="252.8" r="2.5" transform="translate(-59.85 29.16) rotate(-14.32)"/><circle class="cls-3" cx="179.01" cy="302.67" r="2.9" transform="translate(-19.8 12.62) rotate(-3.83)"/><circle class="cls-3" cx="144.81" cy="415.48" r="2.9" transform="matrix(1, -0.07, 0.07, 1, -27.48, 10.62)"/><polygon class="cls-30" points="198.27 433.21 225.9 509.21 248.15 487.21 198.27 433.21"/><polygon class="cls-30" points="257.46 478.58 296.14 545.34 311.48 531.18 257.46 478.58"/><polygon class="cls-30" points="329.75 514.29 363.53 624.37 388.47 606.6 329.75 514.29"/><polygon class="cls-31" points="764.86 661.75 764.86 630.92 748.59 637.77 727.19 618.08 712.63 618.08 685.02 573.66 666.39 605.23 650.12 605.23 636.92 620.84 569.06 645.08 565.35 661.75 764.86 661.75"/><polygon class="cls-32" points="728.83 645.56 722.55 636.27 735.63 635.42 728.83 645.56"/><polygon class="cls-32" points="641.18 637.27 645.66 627 653.39 637.59 641.18 637.27"/><polygon class="cls-32" points="598.86 646.95 608.83 641.8 608.14 654.9 598.86 646.95"/><polygon class="cls-32" points="672.5 642.26 683.17 645.71 673.39 654.44 672.5 642.26"/><polygon class="cls-32" points="688.3 601.5 698.97 604.95 689.19 613.68 688.3 601.5"/><polygon class="cls-33" points="327.37 622.52 341.38 661.75 351.26 661.75 335.38 625.56 327.37 622.52"/><polygon class="cls-25" points="617.64 745.67 473.73 745.67 451.95 764.42 563.19 764.42 617.64 781.18 617.64 745.67"/><polygon class="cls-25" points="719.55 710.68 719.37 710.7 719.42 710.68 417.45 710.68 395.68 729.43 664.91 729.43 665.21 729.33 665.11 729.43 729.09 755.04 719.55 710.68"/><path class="cls-34" d="M361.49,398l55.7-10.42L547.18,670s-2.82,48.17-117.82,59.44c-93.22,9.14-117.88-28.32-117.88-28.32Z" transform="translate(0 0)"/><polygon class="cls-33" points="386.11 758.34 353.6 711.33 335.89 711.33 330.96 721.17 300.96 667.8 281.44 679.19 246.01 679.84 250.6 634.58 207.96 618.83 197.29 634.21 166.47 605.92 211.4 609.26 260.4 597.54 313.37 635.48 315.94 628.54 285.7 591.49 314.03 581.77 318.43 575.67 208.47 598.38 118.34 595.52 118.34 602.34 178.67 661.27 162.57 758.34 386.11 758.34"/><polygon class="cls-32" points="275.32 742.63 278.75 727.49 292 739.88 275.32 742.63"/><polygon class="cls-32" points="213.82 649.05 228.44 643.83 225.08 661.66 213.82 649.05"/><polygon class="cls-32" points="144.92 591.33 159.55 596.5 145.69 608.22 144.92 591.33"/><polygon class="cls-32" points="215.74 701.11 222.37 715.14 204.3 713.54 215.74 701.11"/><polygon class="cls-32" points="274.27 668.7 280.9 682.73 262.82 681.13 274.27 668.7"/><polygon class="cls-31" points="305.26 870.2 0 814.12 0 787.13 821.18 830.37 305.26 870.2"/><polygon class="cls-3" points="283.75 900 305.26 870.2 900 814.12 900 900 283.75 900"/><polygon class="cls-25" points="723.78 730.81 900 751.99 900 775.98 733.83 775.98 723.78 730.81"/><polygon class="cls-35" points="774.03 755.83 764.56 725.42 800.85 733.83 774.03 755.83"/><polygon class="cls-31" points="42 821.83 72.48 812.56 63.82 848.79 42 821.83"/><polygon class="cls-35" points="533.03 799.28 564.84 797.57 547.77 830.68 533.03 799.28"/><polygon class="cls-35" points="391.5 797.75 370.19 821.43 358.88 785.94 391.5 797.75"/><polygon class="cls-35" points="220.44 762.79 199.13 786.47 187.82 750.99 220.44 762.79"/><polygon class="cls-35" points="302.02 775.98 309.04 744.91 336.25 770.35 302.02 775.98"/><polygon class="cls-4" points="858.25 699.19 836.95 722.87 825.63 687.38 858.25 699.19"/></g></g></svg>